<mxfile host="Electron" agent="Mozilla/5.0 (Windows NT 10.0; Win64; x64) AppleWebKit/537.36 (KHTML, like Gecko) draw.io/24.7.8 Chrome/128.0.6613.36 Electron/32.0.1 Safari/537.36" version="24.7.8">
  <diagram id="5CwPGjUbyQKT_4r2Ptqw" name="functions">
    <mxGraphModel dx="882" dy="677" grid="1" gridSize="10" guides="1" tooltips="1" connect="1" arrows="1" fold="1" page="1" pageScale="1" pageWidth="827" pageHeight="1169" math="0" shadow="0">
      <root>
        <mxCell id="0" />
        <mxCell id="1" parent="0" />
        <mxCell id="KOdq0aEJ3bhY2r8L5KYj-3" style="edgeStyle=orthogonalEdgeStyle;rounded=0;orthogonalLoop=1;jettySize=auto;html=1;exitX=0;exitY=0.5;exitDx=0;exitDy=0;endArrow=none;endFill=0;startArrow=block;startFill=1;" parent="1" source="KOdq0aEJ3bhY2r8L5KYj-1" edge="1">
          <mxGeometry relative="1" as="geometry">
            <mxPoint x="80" y="110" as="targetPoint" />
          </mxGeometry>
        </mxCell>
        <mxCell id="UtDX9IJsaf98Vin3WjMV-13" style="edgeStyle=orthogonalEdgeStyle;rounded=0;orthogonalLoop=1;jettySize=auto;html=1;exitX=1;exitY=0.5;exitDx=0;exitDy=0;endArrow=block;endFill=1;" parent="1" source="KOdq0aEJ3bhY2r8L5KYj-1" edge="1">
          <mxGeometry relative="1" as="geometry">
            <mxPoint x="360" y="110" as="targetPoint" />
          </mxGeometry>
        </mxCell>
        <mxCell id="KOdq0aEJ3bhY2r8L5KYj-1" value="left(text, count)" style="rounded=0;whiteSpace=wrap;html=1;" parent="1" vertex="1">
          <mxGeometry x="180" y="80" width="120" height="60" as="geometry" />
        </mxCell>
        <mxCell id="KOdq0aEJ3bhY2r8L5KYj-5" value="&lt;font face=&quot;Lucida Console&quot;&gt;&lt;span style=&quot;font-size: 12px;&quot;&gt;&quot;Hello&quot;, 4&lt;/span&gt;&lt;/font&gt;" style="text;html=1;strokeColor=none;fillColor=none;align=left;verticalAlign=middle;whiteSpace=wrap;rounded=0;fontFamily=Helvetica;fontSize=11;fontColor=default;" parent="1" vertex="1">
          <mxGeometry x="80" y="80" width="100" height="30" as="geometry" />
        </mxCell>
        <mxCell id="trtM3cNy_Q_8wwAv1gUO-1" style="edgeStyle=orthogonalEdgeStyle;rounded=0;orthogonalLoop=1;jettySize=auto;html=1;exitX=0;exitY=0.5;exitDx=0;exitDy=0;endArrow=none;endFill=0;startArrow=block;startFill=1;" parent="1" source="trtM3cNy_Q_8wwAv1gUO-3" edge="1">
          <mxGeometry relative="1" as="geometry">
            <mxPoint x="240" y="251" as="targetPoint" />
          </mxGeometry>
        </mxCell>
        <mxCell id="trtM3cNy_Q_8wwAv1gUO-2" style="edgeStyle=orthogonalEdgeStyle;shape=connector;rounded=0;orthogonalLoop=1;jettySize=auto;html=1;exitX=1;exitY=0.5;exitDx=0;exitDy=0;labelBackgroundColor=default;strokeColor=default;fontFamily=Helvetica;fontSize=11;fontColor=default;endArrow=block;endFill=1;" parent="1" source="trtM3cNy_Q_8wwAv1gUO-3" edge="1">
          <mxGeometry relative="1" as="geometry">
            <mxPoint x="560" y="251" as="targetPoint" />
          </mxGeometry>
        </mxCell>
        <mxCell id="trtM3cNy_Q_8wwAv1gUO-3" value="&lt;font style=&quot;font-size: 12px;&quot;&gt;mid(text, start, count)&lt;/font&gt;" style="rounded=0;whiteSpace=wrap;html=1;" parent="1" vertex="1">
          <mxGeometry x="340" y="221" width="120" height="60" as="geometry" />
        </mxCell>
        <mxCell id="trtM3cNy_Q_8wwAv1gUO-4" value="&lt;font style=&quot;font-size: 12px;&quot; face=&quot;Lucida Console&quot;&gt;&quot;Hello&quot;, 2, 3&lt;/font&gt;" style="text;html=1;strokeColor=none;fillColor=none;align=left;verticalAlign=middle;whiteSpace=wrap;rounded=0;fontFamily=Helvetica;fontSize=11;fontColor=default;" parent="1" vertex="1">
          <mxGeometry x="240" y="220" width="100" height="30" as="geometry" />
        </mxCell>
        <mxCell id="trtM3cNy_Q_8wwAv1gUO-5" value="&lt;font style=&quot;font-size: 12px;&quot; face=&quot;Lucida Console&quot;&gt;&quot;ell&quot;&lt;/font&gt;" style="text;html=1;strokeColor=none;fillColor=none;align=right;verticalAlign=middle;whiteSpace=wrap;rounded=0;fontFamily=Helvetica;fontSize=11;fontColor=default;" parent="1" vertex="1">
          <mxGeometry x="500" y="220" width="60" height="30" as="geometry" />
        </mxCell>
        <mxCell id="trtM3cNy_Q_8wwAv1gUO-11" style="edgeStyle=orthogonalEdgeStyle;rounded=0;orthogonalLoop=1;jettySize=auto;html=1;exitX=0;exitY=0.5;exitDx=0;exitDy=0;endArrow=none;endFill=0;startArrow=block;startFill=1;" parent="1" source="trtM3cNy_Q_8wwAv1gUO-13" edge="1">
          <mxGeometry relative="1" as="geometry">
            <mxPoint x="440" y="110" as="targetPoint" />
          </mxGeometry>
        </mxCell>
        <mxCell id="trtM3cNy_Q_8wwAv1gUO-12" style="edgeStyle=orthogonalEdgeStyle;shape=connector;rounded=0;orthogonalLoop=1;jettySize=auto;html=1;exitX=1;exitY=0.5;exitDx=0;exitDy=0;labelBackgroundColor=default;strokeColor=default;fontFamily=Helvetica;fontSize=11;fontColor=default;endArrow=block;endFill=1;" parent="1" source="trtM3cNy_Q_8wwAv1gUO-13" edge="1">
          <mxGeometry relative="1" as="geometry">
            <mxPoint x="720" y="110" as="targetPoint" />
          </mxGeometry>
        </mxCell>
        <mxCell id="trtM3cNy_Q_8wwAv1gUO-13" value="right(text, count)" style="rounded=0;whiteSpace=wrap;html=1;" parent="1" vertex="1">
          <mxGeometry x="540" y="80" width="120" height="60" as="geometry" />
        </mxCell>
        <mxCell id="trtM3cNy_Q_8wwAv1gUO-14" value="&lt;font face=&quot;Lucida Console&quot;&gt;&lt;span style=&quot;font-size: 12px;&quot;&gt;&quot;Hello&quot;, 4&lt;/span&gt;&lt;/font&gt;" style="text;html=1;strokeColor=none;fillColor=none;align=left;verticalAlign=middle;whiteSpace=wrap;rounded=0;fontFamily=Helvetica;fontSize=11;fontColor=default;" parent="1" vertex="1">
          <mxGeometry x="440" y="80" width="80" height="30" as="geometry" />
        </mxCell>
        <mxCell id="trtM3cNy_Q_8wwAv1gUO-15" value="&lt;font style=&quot;font-size: 12px;&quot; face=&quot;Lucida Console&quot;&gt;&quot;ello&quot;&lt;/font&gt;" style="text;html=1;strokeColor=none;fillColor=none;align=right;verticalAlign=middle;whiteSpace=wrap;rounded=0;fontFamily=Helvetica;fontSize=11;fontColor=default;" parent="1" vertex="1">
          <mxGeometry x="660" y="80" width="60" height="30" as="geometry" />
        </mxCell>
        <mxCell id="UtDX9IJsaf98Vin3WjMV-1" style="edgeStyle=orthogonalEdgeStyle;rounded=0;orthogonalLoop=1;jettySize=auto;html=1;exitX=0;exitY=0.5;exitDx=0;exitDy=0;endArrow=none;endFill=0;startArrow=block;startFill=1;" parent="1" source="UtDX9IJsaf98Vin3WjMV-3" edge="1">
          <mxGeometry relative="1" as="geometry">
            <mxPoint x="80" y="530" as="targetPoint" />
          </mxGeometry>
        </mxCell>
        <mxCell id="UtDX9IJsaf98Vin3WjMV-15" style="edgeStyle=orthogonalEdgeStyle;shape=connector;rounded=0;orthogonalLoop=1;jettySize=auto;html=1;exitX=1;exitY=0.5;exitDx=0;exitDy=0;strokeColor=default;align=center;verticalAlign=middle;fontFamily=Helvetica;fontSize=11;fontColor=default;labelBackgroundColor=default;endArrow=block;endFill=1;" parent="1" source="UtDX9IJsaf98Vin3WjMV-3" edge="1">
          <mxGeometry relative="1" as="geometry">
            <mxPoint x="360" y="530" as="targetPoint" />
          </mxGeometry>
        </mxCell>
        <mxCell id="UtDX9IJsaf98Vin3WjMV-3" value="&lt;font style=&quot;font-size: 12px;&quot;&gt;reverse(text)&lt;/font&gt;" style="rounded=0;whiteSpace=wrap;html=1;" parent="1" vertex="1">
          <mxGeometry x="160" y="500" width="120" height="60" as="geometry" />
        </mxCell>
        <mxCell id="UtDX9IJsaf98Vin3WjMV-4" value="&lt;font style=&quot;font-size: 12px;&quot; face=&quot;Lucida Console&quot;&gt;&quot;Hello!&quot;&lt;/font&gt;" style="text;html=1;strokeColor=none;fillColor=none;align=left;verticalAlign=middle;whiteSpace=wrap;rounded=0;fontFamily=Helvetica;fontSize=11;fontColor=default;" parent="1" vertex="1">
          <mxGeometry x="80" y="500" width="80" height="30" as="geometry" />
        </mxCell>
        <mxCell id="KOdq0aEJ3bhY2r8L5KYj-6" value="&lt;font face=&quot;Lucida Console&quot;&gt;&lt;span style=&quot;font-size: 12px;&quot;&gt;&quot;Hell&quot;&lt;/span&gt;&lt;/font&gt;" style="text;html=1;strokeColor=none;fillColor=none;align=right;verticalAlign=middle;whiteSpace=wrap;rounded=0;fontFamily=Helvetica;fontSize=11;fontColor=default;" parent="1" vertex="1">
          <mxGeometry x="300" y="80" width="60" height="30" as="geometry" />
        </mxCell>
        <mxCell id="UtDX9IJsaf98Vin3WjMV-5" value="&lt;font style=&quot;font-size: 12px;&quot; face=&quot;Lucida Console&quot;&gt;&quot;!elloH&quot;&lt;/font&gt;" style="text;html=1;strokeColor=none;fillColor=none;align=right;verticalAlign=middle;whiteSpace=wrap;rounded=0;fontFamily=Helvetica;fontSize=11;fontColor=default;" parent="1" vertex="1">
          <mxGeometry x="280" y="500" width="80" height="30" as="geometry" />
        </mxCell>
        <mxCell id="S634KzST2HrUXVknl3Rd-1" style="edgeStyle=orthogonalEdgeStyle;rounded=0;orthogonalLoop=1;jettySize=auto;html=1;exitX=0;exitY=0.5;exitDx=0;exitDy=0;endArrow=none;endFill=0;startArrow=block;startFill=1;" parent="1" source="S634KzST2HrUXVknl3Rd-3" edge="1">
          <mxGeometry relative="1" as="geometry">
            <mxPoint x="80" y="390" as="targetPoint" />
          </mxGeometry>
        </mxCell>
        <mxCell id="S634KzST2HrUXVknl3Rd-2" style="edgeStyle=orthogonalEdgeStyle;shape=connector;rounded=0;orthogonalLoop=1;jettySize=auto;html=1;exitX=1;exitY=0.5;exitDx=0;exitDy=0;strokeColor=default;align=center;verticalAlign=middle;fontFamily=Helvetica;fontSize=11;fontColor=default;labelBackgroundColor=default;endArrow=block;endFill=1;" parent="1" source="S634KzST2HrUXVknl3Rd-3" edge="1">
          <mxGeometry relative="1" as="geometry">
            <mxPoint x="360" y="390" as="targetPoint" />
          </mxGeometry>
        </mxCell>
        <mxCell id="S634KzST2HrUXVknl3Rd-3" value="&lt;font style=&quot;font-size: 12px;&quot;&gt;lower(text)&lt;/font&gt;" style="rounded=0;whiteSpace=wrap;html=1;" parent="1" vertex="1">
          <mxGeometry x="160" y="360" width="120" height="60" as="geometry" />
        </mxCell>
        <mxCell id="S634KzST2HrUXVknl3Rd-4" value="&lt;font style=&quot;font-size: 12px;&quot; face=&quot;Lucida Console&quot;&gt;&quot;Hello!&quot;&lt;/font&gt;" style="text;html=1;strokeColor=none;fillColor=none;align=left;verticalAlign=middle;whiteSpace=wrap;rounded=0;fontFamily=Helvetica;fontSize=11;fontColor=default;" parent="1" vertex="1">
          <mxGeometry x="80" y="360" width="80" height="30" as="geometry" />
        </mxCell>
        <mxCell id="S634KzST2HrUXVknl3Rd-5" value="&lt;font style=&quot;font-size: 12px;&quot; face=&quot;Lucida Console&quot;&gt;&quot;hello!&quot;&lt;/font&gt;" style="text;html=1;strokeColor=none;fillColor=none;align=right;verticalAlign=middle;whiteSpace=wrap;rounded=0;fontFamily=Helvetica;fontSize=11;fontColor=default;" parent="1" vertex="1">
          <mxGeometry x="280" y="360" width="80" height="30" as="geometry" />
        </mxCell>
        <mxCell id="S634KzST2HrUXVknl3Rd-8" style="edgeStyle=orthogonalEdgeStyle;rounded=0;orthogonalLoop=1;jettySize=auto;html=1;exitX=0;exitY=0.5;exitDx=0;exitDy=0;endArrow=none;endFill=0;startArrow=block;startFill=1;" parent="1" source="S634KzST2HrUXVknl3Rd-10" edge="1">
          <mxGeometry relative="1" as="geometry">
            <mxPoint x="439.9999999999999" y="390" as="targetPoint" />
          </mxGeometry>
        </mxCell>
        <mxCell id="S634KzST2HrUXVknl3Rd-9" style="edgeStyle=orthogonalEdgeStyle;shape=connector;rounded=0;orthogonalLoop=1;jettySize=auto;html=1;exitX=1;exitY=0.5;exitDx=0;exitDy=0;strokeColor=default;align=center;verticalAlign=middle;fontFamily=Helvetica;fontSize=11;fontColor=default;labelBackgroundColor=default;endArrow=block;endFill=1;" parent="1" source="S634KzST2HrUXVknl3Rd-10" edge="1">
          <mxGeometry relative="1" as="geometry">
            <mxPoint x="720" y="390" as="targetPoint" />
          </mxGeometry>
        </mxCell>
        <mxCell id="S634KzST2HrUXVknl3Rd-10" value="&lt;font style=&quot;font-size: 12px;&quot;&gt;upper(text)&lt;/font&gt;" style="rounded=0;whiteSpace=wrap;html=1;" parent="1" vertex="1">
          <mxGeometry x="520" y="360" width="120" height="60" as="geometry" />
        </mxCell>
        <mxCell id="S634KzST2HrUXVknl3Rd-11" value="&lt;font style=&quot;font-size: 12px;&quot; face=&quot;Lucida Console&quot;&gt;&quot;Hello!&quot;&lt;/font&gt;" style="text;html=1;strokeColor=none;fillColor=none;align=left;verticalAlign=middle;whiteSpace=wrap;rounded=0;fontFamily=Helvetica;fontSize=11;fontColor=default;" parent="1" vertex="1">
          <mxGeometry x="440" y="360" width="80" height="30" as="geometry" />
        </mxCell>
        <mxCell id="S634KzST2HrUXVknl3Rd-12" value="&lt;font style=&quot;font-size: 12px;&quot; face=&quot;Lucida Console&quot;&gt;&quot;HELLO!&quot;&lt;/font&gt;" style="text;html=1;strokeColor=none;fillColor=none;align=right;verticalAlign=middle;whiteSpace=wrap;rounded=0;fontFamily=Helvetica;fontSize=11;fontColor=default;" parent="1" vertex="1">
          <mxGeometry x="640" y="360" width="80" height="30" as="geometry" />
        </mxCell>
        <mxCell id="S634KzST2HrUXVknl3Rd-13" style="edgeStyle=orthogonalEdgeStyle;rounded=0;orthogonalLoop=1;jettySize=auto;html=1;exitX=0;exitY=0.5;exitDx=0;exitDy=0;endArrow=none;endFill=0;startArrow=block;startFill=1;" parent="1" source="S634KzST2HrUXVknl3Rd-15" edge="1">
          <mxGeometry relative="1" as="geometry">
            <mxPoint x="439.9999999999999" y="530" as="targetPoint" />
          </mxGeometry>
        </mxCell>
        <mxCell id="S634KzST2HrUXVknl3Rd-14" style="edgeStyle=orthogonalEdgeStyle;shape=connector;rounded=0;orthogonalLoop=1;jettySize=auto;html=1;exitX=1;exitY=0.5;exitDx=0;exitDy=0;strokeColor=default;align=center;verticalAlign=middle;fontFamily=Helvetica;fontSize=11;fontColor=default;labelBackgroundColor=default;endArrow=block;endFill=1;" parent="1" source="S634KzST2HrUXVknl3Rd-15" edge="1">
          <mxGeometry relative="1" as="geometry">
            <mxPoint x="720" y="530" as="targetPoint" />
          </mxGeometry>
        </mxCell>
        <mxCell id="S634KzST2HrUXVknl3Rd-15" value="&lt;font style=&quot;font-size: 12px;&quot;&gt;swap(text)&lt;/font&gt;" style="rounded=0;whiteSpace=wrap;html=1;" parent="1" vertex="1">
          <mxGeometry x="520" y="500" width="120" height="60" as="geometry" />
        </mxCell>
        <mxCell id="S634KzST2HrUXVknl3Rd-16" value="&lt;font style=&quot;font-size: 12px;&quot; face=&quot;Lucida Console&quot;&gt;&quot;Hello!&quot;&lt;/font&gt;" style="text;html=1;strokeColor=none;fillColor=none;align=left;verticalAlign=middle;whiteSpace=wrap;rounded=0;fontFamily=Helvetica;fontSize=11;fontColor=default;" parent="1" vertex="1">
          <mxGeometry x="440" y="500" width="80" height="30" as="geometry" />
        </mxCell>
        <mxCell id="S634KzST2HrUXVknl3Rd-17" value="&lt;font style=&quot;font-size: 12px;&quot; face=&quot;Lucida Console&quot;&gt;&quot;eELLO!&quot;&lt;/font&gt;" style="text;html=1;strokeColor=none;fillColor=none;align=right;verticalAlign=middle;whiteSpace=wrap;rounded=0;fontFamily=Helvetica;fontSize=11;fontColor=default;" parent="1" vertex="1">
          <mxGeometry x="640" y="500" width="80" height="30" as="geometry" />
        </mxCell>
        <mxCell id="ianyoVv4F0wO6Fpy-v4G-6" style="edgeStyle=orthogonalEdgeStyle;rounded=0;orthogonalLoop=1;jettySize=auto;html=1;exitX=0;exitY=0.5;exitDx=0;exitDy=0;endArrow=none;endFill=0;startArrow=block;startFill=1;" parent="1" source="ianyoVv4F0wO6Fpy-v4G-8" edge="1">
          <mxGeometry relative="1" as="geometry">
            <mxPoint x="260" y="670.0000000000002" as="targetPoint" />
          </mxGeometry>
        </mxCell>
        <mxCell id="ianyoVv4F0wO6Fpy-v4G-7" style="edgeStyle=orthogonalEdgeStyle;shape=connector;rounded=0;orthogonalLoop=1;jettySize=auto;html=1;exitX=1;exitY=0.5;exitDx=0;exitDy=0;strokeColor=default;align=center;verticalAlign=middle;fontFamily=Helvetica;fontSize=11;fontColor=default;labelBackgroundColor=default;endArrow=block;endFill=1;" parent="1" source="ianyoVv4F0wO6Fpy-v4G-8" edge="1">
          <mxGeometry relative="1" as="geometry">
            <mxPoint x="540.0000000000002" y="670.0000000000002" as="targetPoint" />
          </mxGeometry>
        </mxCell>
        <mxCell id="ianyoVv4F0wO6Fpy-v4G-8" value="&lt;font style=&quot;font-size: 12px;&quot;&gt;remove(text)&lt;/font&gt;" style="rounded=0;whiteSpace=wrap;html=1;" parent="1" vertex="1">
          <mxGeometry x="340" y="640" width="120" height="60" as="geometry" />
        </mxCell>
        <mxCell id="ianyoVv4F0wO6Fpy-v4G-9" value="&lt;font style=&quot;font-size: 12px;&quot; face=&quot;Lucida Console&quot;&gt;&quot;He ll@!&quot;&lt;/font&gt;" style="text;html=1;strokeColor=none;fillColor=none;align=left;verticalAlign=middle;whiteSpace=wrap;rounded=0;fontFamily=Helvetica;fontSize=11;fontColor=default;" parent="1" vertex="1">
          <mxGeometry x="260" y="640" width="80" height="30" as="geometry" />
        </mxCell>
        <mxCell id="ianyoVv4F0wO6Fpy-v4G-10" value="&lt;font style=&quot;font-size: 12px;&quot; face=&quot;Lucida Console&quot;&gt;&quot;Hell&quot;&lt;/font&gt;" style="text;html=1;strokeColor=none;fillColor=none;align=right;verticalAlign=middle;whiteSpace=wrap;rounded=0;fontFamily=Helvetica;fontSize=11;fontColor=default;" parent="1" vertex="1">
          <mxGeometry x="460" y="640" width="80" height="30" as="geometry" />
        </mxCell>
      </root>
    </mxGraphModel>
  </diagram>
</mxfile>
